<svg xmlns="http://www.w3.org/2000/svg" width="126" height="99" viewBox="0 0 126 99">
    <path fill="#30333A" stroke="#F3F4F7" stroke-width=".917" d="M123 94c1.105 0 2 .895 2 2 0 1.054-.816 1.918-1.85 1.995L123 98H39c-1.105 0-2-.895-2-2 0-1.054.816-1.918 1.85-1.995L39 94h84zm-94 0c1.105 0 2 .895 2 2 0 1.054-.816 1.918-1.85 1.995L29 98H3c-1.105 0-2-.895-2-2 0-1.054.816-1.918 1.85-1.995L3 94h26zM41.948 1.109l.145.062 63.94 30.789c1.258.606 1.274 2.336.131 3.01l-.131.07-63.94 30.79c-.62.298-1.362.2-1.883-.256-.48-.419-.683-1.064-.54-1.674l.044-.152 7.085-21.153-11.564-7.672c-.479-.317-.766-.851-.766-1.423 0-.52.237-1.008.64-1.331l.126-.092 11.564-7.672-7.085-21.153c-.219-.653-.023-1.372.496-1.826.479-.42 1.148-.537 1.738-.317zm2.316 4.908l8.632 25.773H65.58c.949 0 1.719.765 1.719 1.71 0 .895-.691 1.63-1.571 1.704l-.148.007H52.896l-8.632 25.773L97.786 35.21H81.049c-.95 0-1.719-.766-1.719-1.71 0-.896.69-1.63 1.57-1.705l.149-.006h16.737L44.264 6.017zm-8.076 36.035c.95 0 1.719.767 1.719 1.71 0 .896-.69 1.63-1.57 1.706l-.149.006H25.875c-.95 0-1.719-.766-1.719-1.711 0-.895.69-1.63 1.57-1.704l.149-.007h10.313zM47.926 27.77l-8.64 5.731 8.64 5.731 1.92-5.73-1.92-5.732zm-22.051 4.02c.95 0 1.719.766 1.719 1.711 0 .895-.69 1.63-1.57 1.704l-.149.007h-5.156c-.95 0-1.719-.766-1.719-1.71 0-.896.69-1.63 1.57-1.705l.149-.006h5.156zm47.44 0c.949 0 1.718.766 1.718 1.711 0 .945-.77 1.71-1.718 1.71-.95 0-1.72-.765-1.72-1.71s.77-1.71 1.72-1.71zM36.188 21.527c.95 0 1.719.767 1.719 1.71 0 .896-.69 1.63-1.57 1.705l-.149.006H25.875c-.95 0-1.719-.766-1.719-1.71 0-.895.69-1.63 1.57-1.704l.149-.007h10.313z"/>
</svg>
