<svg xmlns="http://www.w3.org/2000/svg" width="126" height="105" viewBox="0 0 126 105">
    <path fill="#30333A" stroke="#F3F4F7" stroke-width=".917" d="M115.027 100c1.105 0 2 .895 2 2 0 1.054-.816 1.918-1.85 1.995l-.15.005H24.06c-1.105 0-2-.895-2-2 0-1.054.816-1.918 1.85-1.995l.15-.005h90.967zm7.973 0c1.105 0 2 .895 2 2 0 1.054-.816 1.918-1.85 1.995L123 104h-.008c-1.105 0-2-.895-2-2 0-1.054.816-1.918 1.85-1.995l.15-.005H123zm-106.056 0c1.105 0 2 .895 2 2 0 1.054-.815 1.918-1.85 1.995l-.15.005H3c-1.105 0-2-.895-2-2 0-1.054.816-1.918 1.85-1.995L3 100h13.944zm45.437-29.497c.452.783.229 1.769-.49 2.276l-.132.084-14.876 8.589c-.822.474-1.876.187-2.354-.642-.452-.782-.23-1.768.49-2.275l.132-.085 14.875-8.588c.822-.475 1.876-.188 2.355.641zm-15.715-3.545c.438.119.821.414 1.049.809.228.394.292.874.176 1.312-.115.44-.407.822-.798 1.048-.392.226-.869.287-1.307.168-.437-.12-.82-.415-1.048-.81-.228-.394-.292-.873-.177-1.312.116-.439.408-.822.799-1.047.391-.226.868-.288 1.306-.168zm13.33-63.449c.898 1.556.84 3.402.01 4.85l-.118.194 1.973.745 4.551-2.627c2.298-1.327 5.256-.521 6.594 1.795.89 1.542.84 3.37.031 4.812l-.115.194 2.525.953 11.05-6.38c5.128-2.96 11.419-3.244 16.828-.757.67.308 1.075 1.01 1.007 1.744-.54 5.798-3.796 11.003-8.737 13.998l-.332.196-11.05 6.38-.438 2.663c1.731-.06 3.446.819 4.377 2.43 1.3 2.252.6 5.113-1.549 6.49l-.193.118-4.55 2.628-.342 2.081c1.747-.078 3.483.802 4.422 2.428 1.3 2.251.599 5.113-1.549 6.49l-.193.118-4.6 2.656-.75 4.561c-.073.452-.323.852-.689 1.116l-.143.092-7.072 4.083c-.473.273-1.05.304-1.554.08-.34-.151-.618-.406-.8-.721-.059-.101-.107-.208-.145-.32l-.047-.17-5.514-24.51-1.99 1.15c-2.223 1.282-4.54 2.332-6.927 3.144l-.718.236-3.009 10.653c-.106.377-.336.703-.65.928l-.14.09-3.687 2.128c-.515.298-1.149.306-1.675.022-.288-.156-.521-.387-.68-.663-.105-.182-.178-.383-.212-.594l-.018-.16-.708-10.612c-1.628.037-3.267-.027-4.91-.196-.552-.057-1.045-.377-1.324-.86-.28-.484-.311-1.072-.084-1.579.563-1.256 1.188-2.473 1.87-3.649l.416-.7-8.836-5.919c-.225-.15-.408-.35-.54-.577-.158-.275-.241-.593-.233-.92.016-.543.285-1.043.72-1.353l.136-.087 3.687-2.128c.337-.195.729-.268 1.112-.21l.163.034 10.741 2.712c1.86-1.693 3.892-3.21 6.08-4.531l.661-.39 1.99-1.15-3.272-3.017c-.134-.123-.243-.263-.33-.411-.367-.638-.303-1.465.217-2.033.603-.66 1.603-.737 2.305-.204l.128.108 4.073 3.756 14.346-8.283L44.047 6.261l-4.342 2.507 3.273 3.019c.703.648.754 1.742.113 2.443-.603.66-1.603.738-2.305.204l-.128-.108L35.65 9.71c-.13-.12-.241-.26-.328-.41-.182-.316-.263-.684-.224-1.055.052-.492.312-.934.709-1.217l.137-.089 7.072-4.083c.395-.228.862-.287 1.3-.17l.162.053 4.325 1.632 4.6-2.656C55.7.387 58.659 1.193 59.996 3.51zm2.01 56.006c.452.783.23 1.769-.49 2.276l-.132.084-8.337 4.814c-.823.475-1.877.188-2.355-.641-.452-.783-.229-1.769.49-2.276l.132-.084 8.338-4.814c.822-.474 1.876-.187 2.355.641zm18.345-27.68l-14.346 8.283 5.235 23.27 4.342-2.507 4.77-29.046zM49.376 47.46c-.917.19-1.841.346-2.772.468l-.7.085.525 7.85.686-.395 2.261-8.008zm31.828 2.127l-.125.064-.175.101-.58 3.537 2.141-1.237c.657-.379.88-1.225.498-1.888-.358-.62-1.123-.861-1.759-.577zm7.374-38.735l-.348.195-34.368 19.843C48.125 34.2 43.514 38.97 40.408 44.776c3.703.12 7.36-.338 10.872-1.35.039-.014.079-.025.118-.035 2.464-.72 4.857-1.713 7.142-2.973l.621-.35L93.53 20.225c3.8-2.194 6.427-5.974 7.2-10.277-3.987-1.436-8.421-1.118-12.152.903zm-5.162 24.99l-.125.065-.126.072-.58 3.536 2.092-1.208c.657-.379.88-1.226.498-1.888-.358-.62-1.124-.861-1.759-.576zm-48.912-2.22l-.687.396 6.536 4.38c.7-.948 1.44-1.861 2.221-2.738l-8.07-2.039zm-11.402-7.478c.438.12.82.415 1.048.81.228.394.293.873.177 1.312-.116.439-.407.821-.799 1.047-.391.226-.868.287-1.306.168-.438-.12-.82-.415-1.048-.81-.228-.394-.293-.873-.177-1.312.116-.439.407-.821.799-1.047.391-.226.868-.287 1.306-.168zm15.34-7.442c.452.782.229 1.768-.49 2.275l-.132.085-8.338 4.813c-.822.475-1.876.188-2.355-.64-.451-.783-.228-1.77.49-2.276l.133-.085 8.337-4.813c.823-.475 1.877-.188 2.355.64zm-9.328-5.818c.452.782.228 1.768-.49 2.275l-.132.084-14.876 8.589c-.822.474-1.876.187-2.355-.641-.452-.783-.228-1.769.49-2.276l.132-.084L26.76 12.24c.822-.474 1.876-.187 2.355.642zm18.238 3.202c.438.12.82.415 1.049.81.228.394.292.873.176 1.312-.115.44-.406.821-.798 1.048-.391.225-.868.286-1.306.168-.439-.12-.821-.415-1.049-.81-.228-.395-.292-.874-.176-1.312.116-.44.407-.822.798-1.048.392-.226.869-.287 1.306-.168zM68.27 9.608l-.125.064-2.092 1.208 3.353 1.265.125-.072c.657-.38.88-1.226.498-1.888-.358-.62-1.124-.862-1.759-.577zM55.261 4.65l-.125.064-2.142 1.237 3.353 1.265.175-.101c.657-.38.88-1.226.498-1.888-.359-.621-1.124-.862-1.759-.577z"/>
</svg>
