<svg xmlns="http://www.w3.org/2000/svg" width="126" height="110" viewBox="0 0 126 110">
    <path fill="#C72528" stroke="#F3F4F7" stroke-width=".917" d="M87 105c1.105 0 2 .895 2 2 0 1.054-.816 1.918-1.85 1.995L87 109H3c-1.105 0-2-.895-2-2 0-1.054.816-1.918 1.85-1.995L3 105h84zm25.98 0c1.104 0 2 .895 2 2 0 1.054-.817 1.918-1.851 1.995l-.15.005H97c-1.105 0-2-.895-2-2 0-1.054.816-1.918 1.85-1.995L97 105h15.98zm10.066 0c1.104 0 2 .895 2 2 0 1.054-.816 1.918-1.851 1.995l-.15.005H123c-1.105 0-2-.895-2-2 0-1.054.816-1.918 1.85-1.995L123 105h.046zM48.16 74.425c.631.632.669 1.633.111 2.308l-.111.123-11.643 11.64c-.672.672-1.76.672-2.431 0-.632-.631-.669-1.632-.111-2.308l.111-.122L45.73 74.425c.671-.671 1.76-.671 2.43 0zm-13.75 0c.631.632.669 1.633.111 2.308l-.111.123-11.643 11.64c-.672.672-1.76.672-2.431 0-.632-.631-.669-1.632-.111-2.308l.111-.122L31.98 74.425c.671-.671 1.76-.671 2.43 0zm25.903-2.432c.631.631.669 1.632.112 2.308l-.112.122-4.86 4.863c-.672.671-1.76.671-2.431 0-.632-.631-.67-1.633-.112-2.308l.111-.123 4.86-4.862c.672-.671 1.76-.671 2.432 0zM33.575 59.839c.632.632.67 1.633.112 2.308l-.112.123-11.64 11.643c-.672.671-1.76.671-2.431 0-.632-.632-.67-1.633-.112-2.308l.111-.123L31.145 59.84c.67-.67 1.76-.67 2.43 0zM105.22 1.001c.478-.018.94.165 1.277.502.337.338.52.8.502 1.277-.014.389-.386 9.642-4.274 20.642-3.112 8.813-7.567 16.16-13.242 21.834-1.273 1.273-2.621 2.51-4.022 3.694 3.304 5.611 2.268 10.108.747 12.95-3.503 6.545-13.014 10.597-19.817 10.597-.695 0-1.322-.42-1.588-1.062-.266-.642-.119-1.38.373-1.872 3.375-3.375 3.243-7.52 3.065-9.003l-.012-.097-.602-.602c-2.82 1.184-5.622 2.138-8.347 2.838-.935.24-1.976.19-2.987-.207-.763 1.655-1.882 3.251-3.272 4.64-4.424 4.425-15.207 5.323-15.664 5.36-.045.003-.09.005-.135.005-.454 0-.892-.18-1.215-.504-.356-.355-.538-.849-.498-1.35.036-.457.934-11.24 5.359-15.664 1.39-1.39 2.986-2.51 4.641-3.272-.375-.955-.46-2-.208-2.986.63-2.453 1.466-4.97 2.49-7.503l.349-.845-.602-.602c-1.391-.183-5.649-.398-9.1 3.053-.33.329-.769.504-1.216.504-.221 0-.445-.043-.658-.131-.642-.266-1.061-.893-1.061-1.588 0-6.803 4.051-16.314 10.596-19.816 2.843-1.522 7.34-2.557 12.951.746 1.184-1.401 2.422-2.75 3.693-4.022C68.42 12.842 75.765 8.387 84.58 5.275c11-3.888 20.252-4.26 20.64-4.274zM47.699 54.518c-1.543.565-3.077 1.568-4.4 2.892-2.364 2.363-3.61 7.906-4.12 11.41 3.504-.508 9.048-1.755 11.412-4.118 1.221-1.222 2.17-2.623 2.753-4.045l.139-.355-5.784-5.784zm35.047-3.393c-3.662 2.784-7.606 5.204-11.771 7.222.02.032.382.312.522.868.602 2.393.239 6.34-1.408 9.44 5.166-1.068 10.836-4.17 13.088-8.377 1.505-2.811 1.357-5.885-.431-9.153zm-31.97-8.115c-.875 2.221-1.595 4.42-2.145 6.565-.127.496.06 1.072.488 1.502l4.44 4.439 2.132 2.132 1.234 1.234c.428.428 1.004.615 1.501.487 1.876-.481 3.794-1.092 5.732-1.824l.832-.321L50.777 43.01zM84.713 8.887c-7.874 2.917-14.445 6.97-19.537 12.061-1.548 1.548-3.044 3.216-4.448 4.958-3.17 3.937-5.884 8.247-8.086 12.837l-.407.864 16.16 16.16c4.913-2.272 9.518-5.126 13.701-8.495 1.74-1.401 3.409-2.898 4.957-4.446 4.934-4.933 8.89-11.255 11.785-18.803l.277-.735L84.712 8.887zm-48.704 38.8c.631.631.668 1.633.11 2.308l-.11.122-4.863 4.86c-.672.672-1.76.671-2.431 0-.632-.631-.669-1.633-.111-2.308l.112-.122 4.862-4.86c.671-.672 1.76-.672 2.43 0zm29.168-4.861c.67.67.67 1.758 0 2.43-.672.67-1.76.67-2.432 0-.67-.672-.67-1.76 0-2.43.672-.672 1.76-.672 2.432 0zm7.291-7.293c.632.632.67 1.633.112 2.308l-.112.123-2.43 2.43c-.671.671-1.76.671-2.43 0-.632-.632-.67-1.633-.112-2.308l.111-.123 2.43-2.43c.672-.671 1.76-.671 2.431 0zm-24.745-10.71c-4.207 2.252-7.309 7.922-8.376 13.09 4.614-2.453 9.161-1.475 9.398-1.421.575.13.884.518.91.534 2.017-4.165 4.437-8.11 7.22-11.771-3.267-1.789-6.34-1.936-9.152-.432zm39.33-3.873c3.358 3.358 3.357 8.795 0 12.153-3.351 3.35-8.803 3.35-12.154 0-3.35-3.352-3.35-8.804 0-12.153 3.358-3.359 8.795-3.359 12.153 0zm-9.724 2.43c-2.01 2.01-2.01 5.281 0 7.293 2.011 2.01 5.283 2.01 7.292 0 2.016-2.016 2.015-5.278 0-7.293-2.015-2.015-5.277-2.015-7.292 0zm26.09-18.798c-2.769.267-8.246.996-14.58 2.914l-.5.154 12.013 12.013c2.032-6.544 2.794-12.238 3.068-15.08z"/>
</svg>
