<svg xmlns="http://www.w3.org/2000/svg" width="56" height="69" viewBox="0 0 56 69">
    <path fill="#337588" fill-rule="evenodd" d="M47.4 21.563L25.851 5.387 4.307 21.563v43.124h17.236V69H4.307A4.313 4.313 0 0 1 0 64.687v-45.28L25.852 0l25.856 19.406v19.4H47.4V21.563zM25.851 30.18a4.31 4.31 0 0 0 4.311-4.315 4.311 4.311 0 0 0-4.311-4.312 4.312 4.312 0 0 0-4.31 4.312 4.311 4.311 0 0 0 4.31 4.315zm-8.618-4.315a8.618 8.618 0 0 1 17.236 0c0 4.766-3.857 8.63-8.618 8.63-4.76 0-8.618-3.864-8.618-8.63zm25.65 39.693l.189.187-3.036 3.04-.168.19-.013-.01-.008.01-9.67-9.673 3.228-3.232 6.25 6.258 13.117-14.88L56 50.678l-13.117 14.88z"/>
</svg>
