<svg xmlns="http://www.w3.org/2000/svg" width="60" height="69" viewBox="0 0 60 69">
    <path fill="#337588" fill-rule="evenodd" d="M40.005 21.563c0-9.526-6.965-17.25-15.556-17.25-8.594 0-15.557 7.724-15.557 17.25 0 9.529 6.963 17.253 15.557 17.253 8.591 0 15.556-7.724 15.556-17.253m-3.742 17.32c-3.318 2.635-7.378 4.246-11.814 4.246-4.437 0-8.497-1.611-11.817-4.246-4.573.351-8.185 4.026-8.185 8.558v8.621c0 4.768 3.979 8.63 8.888 8.63h20.004V69H13.335C5.97 69 0 63.208 0 56.062v-8.62c0-5.7 3.822-10.485 9.096-12.21a22.378 22.378 0 0 1-4.649-13.669C4.447 9.653 13.402 0 24.45 0 35.496 0 44.45 9.654 44.45 21.563c0 5.218-1.79 9.939-4.65 13.67 3.868 1.265 6.938 4.184 8.309 7.896h-4.886c-1.433-2.366-3.98-4.016-6.96-4.246m23.112 12.099l-13.221 12.83c-.063.082-.037.194-.114.267-.438.425-1.014.595-1.59.57-.574.025-1.15-.145-1.59-.57-.075-.073-.051-.185-.114-.27l-4.33-4.202a2.027 2.027 0 0 1 0-2.928 2.181 2.181 0 0 1 3.018 0l3.016 2.926L56.358 48.05a2.187 2.187 0 0 1 3.017 0 2.03 2.03 0 0 1 0 2.93"/>
</svg>
