<svg xmlns="http://www.w3.org/2000/svg" width="131" height="22" viewBox="0 0 131 22">
    <g fill="#FFF" fill-rule="evenodd">
        <path d="M16.322 8.773c.411 0 .749-.062 1.01-.187.26-.124.477-.29.651-.498.282-.331.423-.694.423-1.088 0-.477-.163-.871-.488-1.183-.348-.373-.88-.56-1.596-.56H6.385c-.326 0-.488.156-.488.468v3.048H16.32zM5.896 21.03H0V1.306C0 .436.489 0 1.466 0h15.637c1.369 0 2.497.182 3.388.544.89.363 1.64.846 2.248 1.447a6.09 6.09 0 0 1 1.287 1.882 5.54 5.54 0 0 1 .472 2.256c0 .85-.152 1.654-.456 2.41-.304.758-.847 1.406-1.629 1.945.739.415 1.276.944 1.613 1.586.337.643.505 1.567.505 2.769v4.2c0 .456.005.83.017 1.12.01.29.037.58.081.871h-5.962a9.9 9.9 0 0 1-.097-1.4v-4.2c0-.663-.185-1.14-.554-1.43-.37-.29-.99-.436-1.857-.436H5.897v7.466zM49.286 0v5.582H33.175c-.335 0-.502.177-.502.53v2.401h16.519v4.3H32.673v2.31c0 .375.167.562.502.562h16.11v5.395H29.978c-1.985 0-2.977-.977-2.977-2.932V2.838C27 .946 28.003 0 30.009 0h19.277zM51.346.918a3.945 3.945 0 0 1-.204-.46A4.52 4.52 0 0 1 51 0h6.731c.063.266.136.51.22.734L64.306 15c.104.224.235.387.392.49.157.1.33.152.52.152a.938.938 0 0 0 .503-.138c.146-.092.272-.26.377-.504L72.388.734c.105-.224.19-.468.252-.734h6.637a4.07 4.07 0 0 1-.346.918l-7.612 16.374c-.609 1.283-1.405 2.236-2.39 2.856-.986.622-2.234.932-3.744.932-2.935 0-4.99-1.262-6.164-3.788L51.346.918zM103.286 0v5.583h-16.11c-.335 0-.503.177-.503.53v2.402h16.519v4.3H86.673v2.311c0 .375.168.561.502.561h16.11v5.396H83.979c-1.985 0-2.978-.977-2.978-2.932V2.838C81 .946 82.003 0 84.01 0h19.276zM122 8.795c.403 0 .734-.062.99-.187.255-.125.468-.291.638-.5.277-.331.415-.695.415-1.09 0-.478-.16-.874-.479-1.186-.34-.374-.862-.561-1.565-.561h-9.74c-.319 0-.479.155-.479.468v3.056H122zm-10.22 12.288H106V1.31c0-.873.48-1.31 1.437-1.31h15.329c1.342 0 2.448.182 3.321.546.873.363 1.607.847 2.204 1.45.531.541.952 1.17 1.261 1.886.309.719.463 1.472.463 2.262 0 .853-.15 1.659-.447 2.418-.298.758-.83 1.408-1.597 1.949.724.416 1.25.946 1.581 1.59.33.645.495 1.57.495 2.776v4.21c0 .458.005.832.016 1.123.01.291.037.582.08.873h-5.844a10.146 10.146 0 0 1-.096-1.403v-4.21c0-.666-.181-1.144-.543-1.435-.362-.291-.97-.437-1.82-.437h-10.06v7.485z"/>
    </g>
</svg>
